<svg width="50" height="50" viewBox="0 0 12 12" fill="none" xmlns="http://www.w3.org/2000/svg">
  <path d="M6 0.75C3.1005 0.75 0.75 3.1005 0.75 6C0.75 8.8995 3.1005 11.25 6 11.25C8.8995 11.25 11.25 8.8995 11.25 6C11.25 3.1005 8.8995 0.75 6 0.75ZM8.46967 7.53033C8.76256 7.82322 8.76256 8.2981 8.46967 8.591C8.17678 8.88389 7.7019 8.88389 7.40901 8.591L6 7.18199L4.59099 8.591C4.2981 8.88389 3.82322 8.88389 3.53033 8.591C3.23744 8.2981 3.23744 7.82322 3.53033 7.53033L4.93934 6.12132L3.53033 4.71231C3.23744 4.41942 3.23744 3.94454 3.53033 3.65165C3.82322 3.35876 4.2981 3.35876 4.59099 3.65165L6 5.06066L7.40901 3.65165C7.7019 3.35876 8.17678 3.35876 8.46967 3.65165C8.76256 3.94454 8.76256 4.41942 8.46967 4.71231L7.06066 6.12132L8.46967 7.53033Z" fill="#E53E3E"/>
</svg>
